<svg version="1.2" baseProfile="tiny-ps" xmlns="http://www.w3.org/2000/svg" viewBox="0 0 44 30" width="44" height="30">
	<title>Client feedback</title>
	<style>
		tspan { white-space:pre }
		.shp0 { fill: #18cfab } 
	</style>
	<g id="Client feedback">
		<g id="1">
			<g id="Text">
				<path id="Forma 1" class="shp0" d="M9.66 10.9C14.97 10.9 19.27 15.18 19.27 20.45C19.27 25.72 14.97 30 9.66 30C4.35 30 0.04 25.72 0.04 20.45L0 19.09C0 8.54 8.61 0 19.23 0L19.23 5.45C15.56 5.45 12.11 6.87 9.52 9.44C9.02 9.94 8.56 10.47 8.15 11.02C8.64 10.95 9.15 10.9 9.66 10.9ZM34.38 10.9C39.69 10.9 44 15.18 44 20.45C44 25.72 39.69 30 34.38 30C29.07 30 24.77 25.72 24.77 20.45L24.73 19.09C24.73 8.54 33.34 0 43.96 0L43.96 5.45C40.29 5.45 36.84 6.87 34.24 9.44C33.74 9.94 33.29 10.47 32.88 11.02C33.37 10.95 33.87 10.9 34.38 10.9Z" />
			</g>
		</g>
	</g>
</svg>