<svg version="1.2" baseProfile="tiny-ps" xmlns="http://www.w3.org/2000/svg" viewBox="0 0 18 19" width="18" height="19">
	<title>Team</title>
	<style>
		tspan { white-space:pre }
		.shp0 { fill: #ffffff } 
	</style>
	<g id="Team">
		<g id="2">
			<g id="Social copy">
				<g id="Icon">
					<path id="Forma 1" class="shp0" d="M17.19 11.12C17.26 10.69 17.29 10.26 17.29 9.82C17.29 5.21 13.56 1.49 8.97 1.49C8.52 1.49 8.09 1.52 7.67 1.59C6.9 1.11 6 0.84 5.03 0.84C2.25 0.84 -0.01 3.09 -0.01 5.87C-0.01 6.84 0.27 7.75 0.74 8.52C0.68 8.94 0.64 9.38 0.64 9.82C0.64 14.42 4.37 18.15 8.97 18.15C9.41 18.15 9.84 18.11 10.27 18.05C11.03 18.52 11.94 18.8 12.91 18.8C15.69 18.8 17.94 16.54 17.94 13.76C17.94 12.79 17.66 11.89 17.19 11.12ZM12.92 13.61C12.57 14.11 12.05 14.51 11.37 14.8C10.7 15.08 9.89 15.22 8.97 15.22C7.86 15.22 6.94 15.03 6.22 14.64C5.71 14.36 5.29 13.98 4.97 13.51C4.65 13.04 4.48 12.58 4.48 12.13C4.48 11.87 4.58 11.64 4.78 11.45C4.98 11.26 5.23 11.17 5.54 11.17C5.78 11.17 6 11.24 6.17 11.39C6.34 11.54 6.48 11.75 6.6 12.03C6.74 12.36 6.9 12.64 7.06 12.85C7.22 13.07 7.45 13.25 7.74 13.39C8.03 13.53 8.42 13.6 8.91 13.6C9.57 13.6 10.11 13.46 10.52 13.18C10.94 12.89 11.14 12.54 11.14 12.12C11.14 11.78 11.03 11.52 10.81 11.31C10.59 11.1 10.3 10.94 9.95 10.82C9.59 10.71 9.11 10.59 8.51 10.46C7.71 10.29 7.03 10.08 6.49 9.85C5.94 9.61 5.5 9.29 5.18 8.88C4.86 8.47 4.7 7.96 4.7 7.35C4.7 6.78 4.87 6.26 5.21 5.81C5.55 5.36 6.04 5.01 6.68 4.77C7.32 4.53 8.08 4.41 8.94 4.41C9.63 4.41 10.23 4.49 10.73 4.65C11.24 4.81 11.66 5.02 11.99 5.29C12.33 5.55 12.57 5.83 12.73 6.12C12.88 6.42 12.96 6.7 12.96 6.99C12.96 7.24 12.86 7.48 12.66 7.69C12.47 7.89 12.21 8 11.92 8C11.66 8 11.45 7.94 11.31 7.81C11.17 7.68 11.02 7.48 10.86 7.21C10.66 6.82 10.42 6.52 10.14 6.3C9.86 6.09 9.41 5.98 8.79 5.98C8.21 5.98 7.74 6.1 7.39 6.33C7.04 6.57 6.87 6.84 6.87 7.16C6.87 7.36 6.93 7.53 7.04 7.68C7.16 7.82 7.33 7.95 7.54 8.06C7.75 8.16 7.96 8.25 8.18 8.31C8.4 8.37 8.76 8.46 9.26 8.58C9.89 8.71 10.46 8.86 10.98 9.03C11.49 9.2 11.93 9.4 12.29 9.64C12.65 9.87 12.94 10.18 13.14 10.55C13.35 10.91 13.45 11.36 13.45 11.89C13.45 12.53 13.27 13.1 12.92 13.61Z" />
				</g>
			</g>
		</g>
	</g>
</svg>