<svg version="1.2" baseProfile="tiny-ps" xmlns="http://www.w3.org/2000/svg" viewBox="0 0 20 17" width="20" height="17">
	<title>Team</title>
	<style>
		tspan { white-space:pre }
		.shp0 { fill: #ffffff } 
	</style>
	<g id="Team">
		<g id="2">
			<g id="Social copy">
				<g id="Icon">
					<path id="Forma 1" class="shp0" d="M19.23 1.08C18.44 1.55 17.57 1.88 16.64 2.07C15.9 1.28 14.84 0.78 13.67 0.78C11.43 0.78 9.6 2.6 9.6 4.84C9.6 5.16 9.64 5.47 9.71 5.76C6.33 5.6 3.33 3.98 1.32 1.53C0.97 2.12 0.77 2.82 0.77 3.57C0.77 4.97 1.49 6.22 2.58 6.94C1.92 6.92 1.29 6.74 0.74 6.43L0.74 6.48C0.74 8.45 2.14 10.09 4 10.46C3.66 10.55 3.3 10.6 2.93 10.6C2.67 10.6 2.41 10.58 2.17 10.53C2.68 12.14 4.19 13.31 5.97 13.35C4.57 14.44 2.82 15.08 0.91 15.08C0.58 15.08 0.26 15.07 -0.06 15.03C1.74 16.18 3.88 16.85 6.18 16.85C13.66 16.85 17.75 10.67 17.75 5.31L17.74 4.78C18.54 4.21 19.23 3.5 19.77 2.68C19.04 3.01 18.26 3.23 17.44 3.32C18.28 2.82 18.92 2.03 19.23 1.08Z" />
				</g>
			</g>
		</g>
	</g>
</svg>