<svg version="1.2" baseProfile="tiny-ps" xmlns="http://www.w3.org/2000/svg" viewBox="0 0 22 19" width="22" height="19">
	<title>Team</title>
	<style>
		tspan { white-space:pre }
		.shp0 { fill: #ffffff } 
	</style>
	<g id="Team">
		<g id="2">
			<g id="Social copy">
				<g id="Icon">
					<path id="Forma 1" class="shp0" d="M18.65 -0.01C15.65 -0.11 13.62 1.59 12.55 5.07C13.1 4.85 13.63 4.73 14.15 4.73C15.25 4.73 15.73 5.35 15.61 6.58C15.54 7.34 15.06 8.43 14.15 9.86C13.25 11.29 12.57 12 12.13 12C11.54 12 11.01 10.9 10.53 8.68C10.36 8.04 10.07 6.38 9.65 3.71C9.26 1.23 8.23 0.07 6.55 0.24C5.85 0.3 4.78 0.96 3.37 2.19C2.33 3.13 1.28 4.08 0.21 5.03L1.23 6.34C2.2 5.66 2.77 5.31 2.92 5.31C3.67 5.31 4.36 6.49 5.01 8.83C5.59 10.98 6.17 13.12 6.75 15.28C7.62 17.62 8.69 18.8 9.95 18.8C11.98 18.8 14.47 16.87 17.4 13.03C20.23 9.35 21.7 6.45 21.8 4.34C21.93 1.51 20.88 0.06 18.65 -0.01Z" />
				</g>
			</g>
		</g>
	</g>
</svg>